<?xml version="1.0" standalone="no"?>
<svg width="1209.4" height="566.90625" xmlns="http://www.w3.org/2000/svg" id="svgvm0"><g transform="translate(5,5)" style="font-family: sans-serif;"><g><g transform="translate(0, 0)"><g transform="translate(0,5)"><rect class="header-box" width="584.3230769230769" height="27.793750000000003" stroke="black" fill="white" rx="5"/><rect class="label-cover" x="7" y="-10" width="38" height="18" fill="white" rx="5"/><text class="header-box-label" x="10" font-size="12" y="3">about</text><g class="header-box-content" transform="translate(5, 0)"><g transform="translate(0, 1.3235119047619044)"><text font-size="20.117380952380955"><tspan x="4" y="19.073363095238097">Ragnar Locker 1</tspan></text></g></g></g></g><g transform="translate(615.0769230769231, 0)"><g transform="translate(0,5)"><rect class="header-box" width="584.3230769230769" height="27.793750000000003" stroke="black" fill="white" rx="5"/><rect class="label-cover" x="7" y="-10" width="49" height="18" fill="white" rx="5"/><text class="header-box-label" x="10" font-size="12" y="3">domain</text><g class="header-box-content" transform="translate(5, 0)"><g transform="translate(0, 1.3235119047619044)"><text font-size="20.117380952380955"><tspan x="4" y="19.073363095238097">Enterprise ATT&amp;CK v8</tspan></text></g></g></g></g></g><g transform="translate(0,38.79375)"><g><g class="tactic initial-access" transform="translate(0, 0)"><g class="techniques"><g class="technique T1078" transform="translate(0, 57.67916666666666)"><rect class="cell" height="57.67916666666666" width="121.28764044943821" fill="rgb(253, 230, 101)" stroke="#6B7279"/><polygon class="sidebar" transform="translate(0, 57.67916666666666)" points="0,0 12,0 12,12" fill="#6B7279" visibility="hidden"/><text font-size="12" fill="black"><tspan x="4" y="25.08958333333333">Valid</tspan><tspan x="4" y="39.58958333333333">Accounts</tspan></text></g></g><g class="subtechniques"/><g class="tactic-label"><text font-size="12" fill="black" font-weight="bold"><tspan text-anchor="middle" x="60.64382022471911" y="25.08958333333333">Initial</tspan><tspan text-anchor="middle" x="60.64382022471911" y="39.58958333333333">Access</tspan></text></g></g><g class="tactic execution" transform="translate(134.76404494382024, 0)"><g class="techniques"><g class="technique T1106" transform="translate(0, 57.67916666666666)"><rect class="cell" height="57.67916666666666" width="121.28764044943821" fill="rgb(253, 230, 101)" stroke="#6B7279"/><polygon class="sidebar" transform="translate(0, 57.67916666666666)" points="0,0 12,0 12,0" fill="#6B7279" visibility="hidden"/><text font-size="12" fill="black"><tspan x="4" y="32.33958333333333">Native API</tspan></text></g></g><g class="subtechniques"/><g class="tactic-label"><text font-size="12" fill="black" font-weight="bold"><tspan text-anchor="middle" x="60.64382022471911" y="32.33958333333333">Execution</tspan></text></g></g><g class="tactic persistence" transform="translate(269.5280898876405, 0)"><g class="techniques"><g class="technique T1542" transform="translate(0, 57.67916666666666)"><rect class="cell" height="57.67916666666666" width="121.28764044943821" fill="#ff6666" stroke="#6B7279"/><polygon class="sidebar" transform="translate(0, 57.67916666666666)" points="0,0 12,0 12,12" fill="#6B7279" visibility="hidden"/><text font-size="12" fill="black"><tspan x="4" y="32.33958333333333">Pre-OS Boot</tspan></text></g><g class="technique T1078" transform="translate(0, 115.35833333333332)"><rect class="cell" height="57.67916666666666" width="121.28764044943821" fill="rgb(253, 230, 101)" stroke="#6B7279"/><polygon class="sidebar" transform="translate(0, 57.67916666666666)" points="0,0 12,0 12,12" fill="#6B7279" visibility="hidden"/><text font-size="12" fill="black"><tspan x="4" y="25.08958333333333">Valid</tspan><tspan x="4" y="39.58958333333333">Accounts</tspan></text></g></g><g class="subtechniques"/><g class="tactic-label"><text font-size="12" fill="black" font-weight="bold"><tspan text-anchor="middle" x="60.64382022471911" y="32.33958333333333">Persistence</tspan></text></g></g><g class="tactic privilege-escalation" transform="translate(404.2921348314607, 0)"><g class="techniques"><g class="technique T1134" transform="translate(0, 57.67916666666666)"><rect class="cell" height="57.67916666666666" width="121.28764044943821" fill="rgb(253, 230, 101)" stroke="#6B7279"/><polygon class="sidebar" transform="translate(0, 57.67916666666666)" points="0,0 12,0 12,12" fill="#6B7279" visibility="hidden"/><text font-size="12" fill="black"><tspan x="4" y="25.08958333333333">Access Token</tspan><tspan x="4" y="39.58958333333333">Manipulation</tspan></text></g><g class="technique T1078" transform="translate(0, 115.35833333333332)"><rect class="cell" height="57.67916666666666" width="121.28764044943821" fill="rgb(253, 230, 101)" stroke="#6B7279"/><polygon class="sidebar" transform="translate(0, 57.67916666666666)" points="0,0 12,0 12,12" fill="#6B7279" visibility="hidden"/><text font-size="12" fill="black"><tspan x="4" y="25.08958333333333">Valid</tspan><tspan x="4" y="39.58958333333333">Accounts</tspan></text></g><g class="technique T1055" transform="translate(0, 173.03749999999997)"><rect class="cell" height="57.67916666666666" width="121.28764044943821" fill="#8ec843" stroke="#6B7279"/><polygon class="sidebar" transform="translate(0, 57.67916666666666)" points="0,0 12,0 12,12" fill="#6B7279" visibility="hidden"/><text font-size="12" fill="black"><tspan x="4" y="25.08958333333333">Process</tspan><tspan x="4" y="39.58958333333333">Injection</tspan></text></g></g><g class="subtechniques"/><g class="tactic-label"><text font-size="12" fill="black" font-weight="bold"><tspan text-anchor="middle" x="60.64382022471911" y="25.08958333333333">Privilege</tspan><tspan text-anchor="middle" x="60.64382022471911" y="39.58958333333333">Escalation</tspan></text></g></g><g class="tactic defense-evasion" transform="translate(539.056179775281, 0)"><g class="techniques"><g class="technique T1070" transform="translate(0, 57.67916666666666)"><rect class="cell" height="57.67916666666666" width="121.28764044943821" fill="#ff6666" stroke="#6B7279"/><polygon class="sidebar" transform="translate(0, 57.67916666666666)" points="0,0 12,0 12,12" fill="#6B7279" visibility="hidden"/><text font-size="12" fill="black"><tspan x="4" y="17.672916666666662">Indicator</tspan><tspan x="4" y="32.33958333333333">Removal</tspan><tspan x="4" y="47.006249999999994">on Host</tspan></text></g><g class="technique T1542" transform="translate(0, 115.35833333333332)"><rect class="cell" height="57.67916666666666" width="121.28764044943821" fill="#ff6666" stroke="#6B7279"/><polygon class="sidebar" transform="translate(0, 57.67916666666666)" points="0,0 12,0 12,12" fill="#6B7279" visibility="hidden"/><text font-size="12" fill="black"><tspan x="4" y="32.33958333333333">Pre-OS Boot</tspan></text></g><g class="technique T1134" transform="translate(0, 173.03749999999997)"><rect class="cell" height="57.67916666666666" width="121.28764044943821" fill="rgb(253, 230, 101)" stroke="#6B7279"/><polygon class="sidebar" transform="translate(0, 57.67916666666666)" points="0,0 12,0 12,12" fill="#6B7279" visibility="hidden"/><text font-size="12" fill="black"><tspan x="4" y="25.08958333333333">Access Token</tspan><tspan x="4" y="39.58958333333333">Manipulation</tspan></text></g><g class="technique T1078" transform="translate(0, 230.71666666666664)"><rect class="cell" height="57.67916666666666" width="121.28764044943821" fill="rgb(253, 230, 101)" stroke="#6B7279"/><polygon class="sidebar" transform="translate(0, 57.67916666666666)" points="0,0 12,0 12,12" fill="#6B7279" visibility="hidden"/><text font-size="12" fill="black"><tspan x="4" y="25.08958333333333">Valid</tspan><tspan x="4" y="39.58958333333333">Accounts</tspan></text></g><g class="technique T1497" transform="translate(0, 288.3958333333333)"><rect class="cell" height="57.67916666666666" width="121.28764044943821" fill="rgb(253, 230, 101)" stroke="#6B7279"/><polygon class="sidebar" transform="translate(0, 57.67916666666666)" points="0,0 12,0 12,12" fill="#6B7279" visibility="hidden"/><text font-size="7.466685393258428" fill="black"><tspan x="4" y="24.08958333333333">Virtualization/Sandbox</tspan><tspan x="4" y="38.58958333333333">Evasion</tspan></text></g><g class="technique T1055" transform="translate(0, 346.07499999999993)"><rect class="cell" height="57.67916666666666" width="121.28764044943821" fill="#8ec843" stroke="#6B7279"/><polygon class="sidebar" transform="translate(0, 57.67916666666666)" points="0,0 12,0 12,12" fill="#6B7279" visibility="hidden"/><text font-size="12" fill="black"><tspan x="4" y="25.08958333333333">Process</tspan><tspan x="4" y="39.58958333333333">Injection</tspan></text></g></g><g class="subtechniques"/><g class="tactic-label"><text font-size="12" fill="black" font-weight="bold"><tspan text-anchor="middle" x="60.64382022471911" y="25.08958333333333">Defense</tspan><tspan text-anchor="middle" x="60.64382022471911" y="39.58958333333333">Evasion</tspan></text></g></g><g class="tactic discovery" transform="translate(673.8202247191011, 0)"><g class="techniques"><g class="technique T1518" transform="translate(0, 57.67916666666666)"><rect class="cell" height="57.67916666666666" width="121.28764044943821" fill="#ff6666" stroke="#6B7279"/><polygon class="sidebar" transform="translate(0, 57.67916666666666)" points="0,0 12,0 12,12" fill="#6B7279" visibility="hidden"/><text font-size="12" fill="black"><tspan x="4" y="25.08958333333333">Software</tspan><tspan x="4" y="39.58958333333333">Discovery</tspan></text></g><g class="technique T1082" transform="translate(0, 115.35833333333332)"><rect class="cell" height="57.67916666666666" width="121.28764044943821" fill="rgb(253, 230, 101)" stroke="#6B7279"/><polygon class="sidebar" transform="translate(0, 57.67916666666666)" points="0,0 12,0 12,0" fill="#6B7279" visibility="hidden"/><text font-size="12" fill="black"><tspan x="4" y="17.672916666666662">System</tspan><tspan x="4" y="32.33958333333333">Information</tspan><tspan x="4" y="47.006249999999994">Discovery</tspan></text></g><g class="technique T1007" transform="translate(0, 173.03749999999997)"><rect class="cell" height="57.67916666666666" width="121.28764044943821" fill="rgb(253, 230, 101)" stroke="#6B7279"/><polygon class="sidebar" transform="translate(0, 57.67916666666666)" points="0,0 12,0 12,0" fill="#6B7279" visibility="hidden"/><text font-size="12" fill="black"><tspan x="4" y="17.672916666666662">System</tspan><tspan x="4" y="32.33958333333333">Service</tspan><tspan x="4" y="47.006249999999994">Discovery</tspan></text></g><g class="technique T1497" transform="translate(0, 230.71666666666664)"><rect class="cell" height="57.67916666666666" width="121.28764044943821" fill="rgb(253, 230, 101)" stroke="#6B7279"/><polygon class="sidebar" transform="translate(0, 57.67916666666666)" points="0,0 12,0 12,12" fill="#6B7279" visibility="hidden"/><text font-size="7.466685393258428" fill="black"><tspan x="4" y="24.08958333333333">Virtualization/Sandbox</tspan><tspan x="4" y="38.58958333333333">Evasion</tspan></text></g><g class="technique T1087" transform="translate(0, 288.3958333333333)"><rect class="cell" height="57.67916666666666" width="121.28764044943821" fill="#8ec843" stroke="#6B7279"/><polygon class="sidebar" transform="translate(0, 57.67916666666666)" points="0,0 12,0 12,12" fill="#6B7279" visibility="hidden"/><text font-size="12" fill="black"><tspan x="4" y="25.08958333333333">Account</tspan><tspan x="4" y="39.58958333333333">Discovery</tspan></text></g><g class="technique T1083" transform="translate(0, 346.07499999999993)"><rect class="cell" height="57.67916666666666" width="121.28764044943821" fill="#8ec843" stroke="#6B7279"/><polygon class="sidebar" transform="translate(0, 57.67916666666666)" points="0,0 12,0 12,0" fill="#6B7279" visibility="hidden"/><text font-size="12" fill="black"><tspan x="4" y="17.672916666666662">File</tspan><tspan x="4" y="32.33958333333333">and Directory</tspan><tspan x="4" y="47.006249999999994">Discovery</tspan></text></g><g class="technique T1057" transform="translate(0, 403.75416666666666)"><rect class="cell" height="57.67916666666666" width="121.28764044943821" fill="#8ec843" stroke="#6B7279"/><polygon class="sidebar" transform="translate(0, 57.67916666666666)" points="0,0 12,0 12,0" fill="#6B7279" visibility="hidden"/><text font-size="12" fill="black"><tspan x="4" y="25.08958333333333">Process</tspan><tspan x="4" y="39.58958333333333">Discovery</tspan></text></g><g class="technique T1033" transform="translate(0, 461.4333333333333)"><rect class="cell" height="57.67916666666666" width="121.28764044943821" fill="#8ec843" stroke="#6B7279"/><polygon class="sidebar" transform="translate(0, 57.67916666666666)" points="0,0 12,0 12,0" fill="#6B7279" visibility="hidden"/><text font-size="12" fill="black"><tspan x="4" y="17.672916666666662">System</tspan><tspan x="4" y="32.33958333333333">Owner/User</tspan><tspan x="4" y="47.006249999999994">Discovery</tspan></text></g></g><g class="subtechniques"/><g class="tactic-label"><text font-size="12" fill="black" font-weight="bold"><tspan text-anchor="middle" x="60.64382022471911" y="32.33958333333333">Discovery</tspan></text></g></g><g class="tactic collection" transform="translate(808.5842696629214, 0)"><g class="techniques"><g class="technique T1119" transform="translate(0, 57.67916666666666)"><rect class="cell" height="57.67916666666666" width="121.28764044943821" fill="#ff6666" stroke="#6B7279"/><polygon class="sidebar" transform="translate(0, 57.67916666666666)" points="0,0 12,0 12,0" fill="#6B7279" visibility="hidden"/><text font-size="12" fill="black"><tspan x="4" y="25.08958333333333">Automated</tspan><tspan x="4" y="39.58958333333333">Collection</tspan></text></g><g class="technique T1005" transform="translate(0, 115.35833333333332)"><rect class="cell" height="57.67916666666666" width="121.28764044943821" fill="#ff6666" stroke="#6B7279"/><polygon class="sidebar" transform="translate(0, 57.67916666666666)" points="0,0 12,0 12,0" fill="#6B7279" visibility="hidden"/><text font-size="12" fill="black"><tspan x="4" y="25.08958333333333">Data from</tspan><tspan x="4" y="39.58958333333333">Local System</tspan></text></g><g class="technique T1560" transform="translate(0, 173.03749999999997)"><rect class="cell" height="57.67916666666666" width="121.28764044943821" fill="rgb(253, 230, 101)" stroke="#6B7279"/><polygon class="sidebar" transform="translate(0, 57.67916666666666)" points="0,0 12,0 12,12" fill="#6B7279" visibility="hidden"/><text font-size="12" fill="black"><tspan x="4" y="17.672916666666662">Archive</tspan><tspan x="4" y="32.33958333333333">Collected</tspan><tspan x="4" y="47.006249999999994">Data</tspan></text></g></g><g class="subtechniques"/><g class="tactic-label"><text font-size="12" fill="black" font-weight="bold"><tspan text-anchor="middle" x="60.64382022471911" y="32.33958333333333">Collection</tspan></text></g></g><g class="tactic command-and-control" transform="translate(943.3483146067417, 0)"><g class="techniques"><g class="technique T1573" transform="translate(0, 57.67916666666666)"><rect class="cell" height="57.67916666666666" width="121.28764044943821" fill="rgb(253, 230, 101)" stroke="#6B7279"/><polygon class="sidebar" transform="translate(0, 57.67916666666666)" points="0,0 12,0 12,12" fill="#6B7279" visibility="hidden"/><text font-size="12" fill="black"><tspan x="4" y="25.08958333333333">Encrypted</tspan><tspan x="4" y="39.58958333333333">Channel</tspan></text></g></g><g class="subtechniques"/><g class="tactic-label"><text font-size="12" fill="black" font-weight="bold"><tspan text-anchor="middle" x="60.64382022471911" y="25.08958333333333">Command</tspan><tspan text-anchor="middle" x="60.64382022471911" y="39.58958333333333">and Control</tspan></text></g></g><g class="tactic impact" transform="translate(1078.112359550562, 0)"><g class="techniques"><g class="technique T1486" transform="translate(0, 57.67916666666666)"><rect class="cell" height="57.67916666666666" width="121.28764044943821" fill="#ff6666" stroke="#6B7279"/><polygon class="sidebar" transform="translate(0, 57.67916666666666)" points="0,0 12,0 12,0" fill="#6B7279" visibility="hidden"/><text font-size="12" fill="black"><tspan x="4" y="17.672916666666662">Data</tspan><tspan x="4" y="32.33958333333333">Encrypted</tspan><tspan x="4" y="47.006249999999994">for Impact</tspan></text></g></g><g class="subtechniques"/><g class="tactic-label"><text font-size="12" fill="black" font-weight="bold"><tspan text-anchor="middle" x="60.64382022471911" y="32.33958333333333">Impact</tspan></text></g></g></g></g></g></svg>