<?xml version="1.0" standalone="no"?>
<svg width="1209.4" height="566.90625" xmlns="http://www.w3.org/2000/svg" id="svgvm1"><g transform="translate(5,5)" style="font-family: sans-serif;"><g><g transform="translate(0, 0)"><g transform="translate(0,5)"><rect class="header-box" width="584.3230769230769" height="27.793750000000003" stroke="black" fill="white" rx="5"/><rect class="label-cover" x="7" y="-10" width="38" height="18" fill="white" rx="5"/><text class="header-box-label" x="10" font-size="12" y="3">about</text><g class="header-box-content" transform="translate(5, 0)"><g transform="translate(0, 1.3235119047619044)"><text font-size="20.117380952380955"><tspan x="4" y="19.073363095238097">Ragnar Locker 2</tspan></text></g></g></g></g><g transform="translate(615.0769230769231, 0)"><g transform="translate(0,5)"><rect class="header-box" width="584.3230769230769" height="27.793750000000003" stroke="black" fill="white" rx="5"/><rect class="label-cover" x="7" y="-10" width="49" height="18" fill="white" rx="5"/><text class="header-box-label" x="10" font-size="12" y="3">domain</text><g class="header-box-content" transform="translate(5, 0)"><g transform="translate(0, 1.3235119047619044)"><text font-size="20.117380952380955"><tspan x="4" y="19.073363095238097">Enterprise ATT&amp;CK v8</tspan></text></g></g></g></g></g><g transform="translate(0,38.79375)"><g><g class="tactic initial-access" transform="translate(0, 0)"><g class="techniques"><g class="technique T1078" transform="translate(0, 51.911249999999995)"><rect class="cell" height="51.911249999999995" width="109.03636363636365" fill="rgb(253, 230, 101)" stroke="#6B7279"/><polygon class="sidebar" transform="translate(0, 51.911249999999995)" points="0,0 12,0 12,12" fill="#6B7279" visibility="hidden"/><text font-size="12" fill="black"><tspan x="4" y="22.205624999999998">Valid</tspan><tspan x="4" y="36.705625">Accounts</tspan></text></g></g><g class="subtechniques"/><g class="tactic-label"><text font-size="12" fill="black" font-weight="bold"><tspan text-anchor="middle" x="54.51818181818182" y="22.205624999999998">Initial</tspan><tspan text-anchor="middle" x="54.51818181818182" y="36.705625">Access</tspan></text></g></g><g class="tactic execution" transform="translate(121.15151515151516, 0)"><g class="techniques"><g class="technique T1106" transform="translate(0, 51.911249999999995)"><rect class="cell" height="51.911249999999995" width="109.03636363636365" fill="rgb(253, 230, 101)" stroke="#6B7279"/><polygon class="sidebar" transform="translate(0, 51.911249999999995)" points="0,0 12,0 12,0" fill="#6B7279" visibility="hidden"/><text font-size="12" fill="black"><tspan x="4" y="29.455624999999998">Native API</tspan></text></g></g><g class="subtechniques"/><g class="tactic-label"><text font-size="12" fill="black" font-weight="bold"><tspan text-anchor="middle" x="54.51818181818182" y="29.455624999999998">Execution</tspan></text></g></g><g class="tactic persistence" transform="translate(242.3030303030303, 0)"><g class="techniques"><g class="technique T1542" transform="translate(0, 51.911249999999995)"><rect class="cell" height="51.911249999999995" width="109.03636363636365" fill="#ff6666" stroke="#6B7279"/><polygon class="sidebar" transform="translate(0, 51.911249999999995)" points="0,0 12,0 12,12" fill="#6B7279" visibility="hidden"/><text font-size="12" fill="black"><tspan x="4" y="29.455624999999998">Pre-OS Boot</tspan></text></g><g class="technique T1037" transform="translate(0, 103.82249999999999)"><rect class="cell" height="51.911249999999995" width="109.03636363636365" fill="rgb(253, 230, 101)" stroke="#6B7279"/><polygon class="sidebar" transform="translate(0, 51.911249999999995)" points="0,0 12,0 12,12" fill="#6B7279" visibility="hidden"/><text font-size="10.46448051948052" fill="black"><tspan x="4" y="14.78895833333333">Boot or Logon</tspan><tspan x="4" y="29.455624999999998">Initialization</tspan><tspan x="4" y="44.12229166666666">Scripts</tspan></text></g><g class="technique T1574" transform="translate(0, 155.73375)"><rect class="cell" height="51.911249999999995" width="109.03636363636365" fill="rgb(253, 230, 101)" stroke="#6B7279"/><polygon class="sidebar" transform="translate(0, 51.911249999999995)" points="0,0 12,0 12,12" fill="#6B7279" visibility="hidden"/><text font-size="12" fill="black"><tspan x="4" y="14.78895833333333">Hijack</tspan><tspan x="4" y="29.455624999999998">Execution</tspan><tspan x="4" y="44.12229166666666">Flow</tspan></text></g><g class="technique T1078" transform="translate(0, 207.64499999999998)"><rect class="cell" height="51.911249999999995" width="109.03636363636365" fill="rgb(253, 230, 101)" stroke="#6B7279"/><polygon class="sidebar" transform="translate(0, 51.911249999999995)" points="0,0 12,0 12,12" fill="#6B7279" visibility="hidden"/><text font-size="12" fill="black"><tspan x="4" y="22.205624999999998">Valid</tspan><tspan x="4" y="36.705625">Accounts</tspan></text></g></g><g class="subtechniques"/><g class="tactic-label"><text font-size="12" fill="black" font-weight="bold"><tspan text-anchor="middle" x="54.51818181818182" y="29.455624999999998">Persistence</tspan></text></g></g><g class="tactic privilege-escalation" transform="translate(363.4545454545455, 0)"><g class="techniques"><g class="technique T1134" transform="translate(0, 51.911249999999995)"><rect class="cell" height="51.911249999999995" width="109.03636363636365" fill="rgb(253, 230, 101)" stroke="#6B7279"/><polygon class="sidebar" transform="translate(0, 51.911249999999995)" points="0,0 12,0 12,12" fill="#6B7279" visibility="hidden"/><text font-size="12" fill="black"><tspan x="4" y="22.205624999999998">Access Token</tspan><tspan x="4" y="36.705625">Manipulation</tspan></text></g><g class="technique T1037" transform="translate(0, 103.82249999999999)"><rect class="cell" height="51.911249999999995" width="109.03636363636365" fill="rgb(253, 230, 101)" stroke="#6B7279"/><polygon class="sidebar" transform="translate(0, 51.911249999999995)" points="0,0 12,0 12,12" fill="#6B7279" visibility="hidden"/><text font-size="10.46448051948052" fill="black"><tspan x="4" y="14.78895833333333">Boot or Logon</tspan><tspan x="4" y="29.455624999999998">Initialization</tspan><tspan x="4" y="44.12229166666666">Scripts</tspan></text></g><g class="technique T1574" transform="translate(0, 155.73375)"><rect class="cell" height="51.911249999999995" width="109.03636363636365" fill="rgb(253, 230, 101)" stroke="#6B7279"/><polygon class="sidebar" transform="translate(0, 51.911249999999995)" points="0,0 12,0 12,12" fill="#6B7279" visibility="hidden"/><text font-size="12" fill="black"><tspan x="4" y="14.78895833333333">Hijack</tspan><tspan x="4" y="29.455624999999998">Execution</tspan><tspan x="4" y="44.12229166666666">Flow</tspan></text></g><g class="technique T1078" transform="translate(0, 207.64499999999998)"><rect class="cell" height="51.911249999999995" width="109.03636363636365" fill="rgb(253, 230, 101)" stroke="#6B7279"/><polygon class="sidebar" transform="translate(0, 51.911249999999995)" points="0,0 12,0 12,12" fill="#6B7279" visibility="hidden"/><text font-size="12" fill="black"><tspan x="4" y="22.205624999999998">Valid</tspan><tspan x="4" y="36.705625">Accounts</tspan></text></g><g class="technique T1055" transform="translate(0, 259.55625)"><rect class="cell" height="51.911249999999995" width="109.03636363636365" fill="#8ec843" stroke="#6B7279"/><polygon class="sidebar" transform="translate(0, 51.911249999999995)" points="0,0 12,0 12,12" fill="#6B7279" visibility="hidden"/><text font-size="12" fill="black"><tspan x="4" y="22.205624999999998">Process</tspan><tspan x="4" y="36.705625">Injection</tspan></text></g></g><g class="subtechniques"/><g class="tactic-label"><text font-size="12" fill="black" font-weight="bold"><tspan text-anchor="middle" x="54.51818181818182" y="22.205624999999998">Privilege</tspan><tspan text-anchor="middle" x="54.51818181818182" y="36.705625">Escalation</tspan></text></g></g><g class="tactic defense-evasion" transform="translate(484.6060606060606, 0)"><g class="techniques"><g class="technique T1542" transform="translate(0, 51.911249999999995)"><rect class="cell" height="51.911249999999995" width="109.03636363636365" fill="#ff6666" stroke="#6B7279"/><polygon class="sidebar" transform="translate(0, 51.911249999999995)" points="0,0 12,0 12,12" fill="#6B7279" visibility="hidden"/><text font-size="12" fill="black"><tspan x="4" y="29.455624999999998">Pre-OS Boot</tspan></text></g><g class="technique T1134" transform="translate(0, 103.82249999999999)"><rect class="cell" height="51.911249999999995" width="109.03636363636365" fill="rgb(253, 230, 101)" stroke="#6B7279"/><polygon class="sidebar" transform="translate(0, 51.911249999999995)" points="0,0 12,0 12,12" fill="#6B7279" visibility="hidden"/><text font-size="12" fill="black"><tspan x="4" y="22.205624999999998">Access Token</tspan><tspan x="4" y="36.705625">Manipulation</tspan></text></g><g class="technique T1574" transform="translate(0, 155.73375)"><rect class="cell" height="51.911249999999995" width="109.03636363636365" fill="rgb(253, 230, 101)" stroke="#6B7279"/><polygon class="sidebar" transform="translate(0, 51.911249999999995)" points="0,0 12,0 12,12" fill="#6B7279" visibility="hidden"/><text font-size="12" fill="black"><tspan x="4" y="14.78895833333333">Hijack</tspan><tspan x="4" y="29.455624999999998">Execution</tspan><tspan x="4" y="44.12229166666666">Flow</tspan></text></g><g class="technique T1112" transform="translate(0, 207.64499999999998)"><rect class="cell" height="51.911249999999995" width="109.03636363636365" fill="rgb(253, 230, 101)" stroke="#6B7279"/><polygon class="sidebar" transform="translate(0, 51.911249999999995)" points="0,0 12,0 12,0" fill="#6B7279" visibility="hidden"/><text font-size="12" fill="black"><tspan x="4" y="22.205624999999998">Modify</tspan><tspan x="4" y="36.705625">Registry</tspan></text></g><g class="technique T1078" transform="translate(0, 259.55625)"><rect class="cell" height="51.911249999999995" width="109.03636363636365" fill="rgb(253, 230, 101)" stroke="#6B7279"/><polygon class="sidebar" transform="translate(0, 51.911249999999995)" points="0,0 12,0 12,12" fill="#6B7279" visibility="hidden"/><text font-size="12" fill="black"><tspan x="4" y="22.205624999999998">Valid</tspan><tspan x="4" y="36.705625">Accounts</tspan></text></g><g class="technique T1497" transform="translate(0, 311.4675)"><rect class="cell" height="51.911249999999995" width="109.03636363636365" fill="rgb(253, 230, 101)" stroke="#6B7279"/><polygon class="sidebar" transform="translate(0, 51.911249999999995)" points="0,0 12,0 12,12" fill="#6B7279" visibility="hidden"/><text font-size="6.659214876033059" fill="black"><tspan x="4" y="20.205624999999998">Virtualization/Sandbox</tspan><tspan x="4" y="34.705625">Evasion</tspan></text></g><g class="technique T1036" transform="translate(0, 363.37874999999997)"><rect class="cell" height="51.911249999999995" width="109.03636363636365" fill="#8ec843" stroke="#6B7279"/><polygon class="sidebar" transform="translate(0, 51.911249999999995)" points="0,0 12,0 12,12" fill="#6B7279" visibility="hidden"/><text font-size="12" fill="black"><tspan x="4" y="29.455624999999998">Masquerading</tspan></text></g><g class="technique T1055" transform="translate(0, 415.28999999999996)"><rect class="cell" height="51.911249999999995" width="109.03636363636365" fill="#8ec843" stroke="#6B7279"/><polygon class="sidebar" transform="translate(0, 51.911249999999995)" points="0,0 12,0 12,12" fill="#6B7279" visibility="hidden"/><text font-size="12" fill="black"><tspan x="4" y="22.205624999999998">Process</tspan><tspan x="4" y="36.705625">Injection</tspan></text></g></g><g class="subtechniques"/><g class="tactic-label"><text font-size="12" fill="black" font-weight="bold"><tspan text-anchor="middle" x="54.51818181818182" y="22.205624999999998">Defense</tspan><tspan text-anchor="middle" x="54.51818181818182" y="36.705625">Evasion</tspan></text></g></g><g class="tactic credential-access" transform="translate(605.7575757575758, 0)"><g class="techniques"><g class="technique T1056" transform="translate(0, 51.911249999999995)"><rect class="cell" height="51.911249999999995" width="109.03636363636365" fill="rgb(253, 230, 101)" stroke="#6B7279"/><polygon class="sidebar" transform="translate(0, 51.911249999999995)" points="0,0 12,0 12,12" fill="#6B7279" visibility="hidden"/><text font-size="12" fill="black"><tspan x="4" y="22.205624999999998">Input</tspan><tspan x="4" y="36.705625">Capture</tspan></text></g></g><g class="subtechniques"/><g class="tactic-label"><text font-size="12" fill="black" font-weight="bold"><tspan text-anchor="middle" x="54.51818181818182" y="22.205624999999998">Credential</tspan><tspan text-anchor="middle" x="54.51818181818182" y="36.705625">Access</tspan></text></g></g><g class="tactic discovery" transform="translate(726.909090909091, 0)"><g class="techniques"><g class="technique T1012" transform="translate(0, 51.911249999999995)"><rect class="cell" height="51.911249999999995" width="109.03636363636365" fill="rgb(253, 230, 101)" stroke="#6B7279"/><polygon class="sidebar" transform="translate(0, 51.911249999999995)" points="0,0 12,0 12,0" fill="#6B7279" visibility="hidden"/><text font-size="12" fill="black"><tspan x="4" y="22.205624999999998">Query</tspan><tspan x="4" y="36.705625">Registry</tspan></text></g><g class="technique T1518" transform="translate(0, 103.82249999999999)"><rect class="cell" height="51.911249999999995" width="109.03636363636365" fill="rgb(253, 230, 101)" stroke="#6B7279"/><polygon class="sidebar" transform="translate(0, 51.911249999999995)" points="0,0 12,0 12,12" fill="#6B7279" visibility="hidden"/><text font-size="12" fill="black"><tspan x="4" y="22.205624999999998">Software</tspan><tspan x="4" y="36.705625">Discovery</tspan></text></g><g class="technique T1082" transform="translate(0, 155.73375)"><rect class="cell" height="51.911249999999995" width="109.03636363636365" fill="rgb(253, 230, 101)" stroke="#6B7279"/><polygon class="sidebar" transform="translate(0, 51.911249999999995)" points="0,0 12,0 12,0" fill="#6B7279" visibility="hidden"/><text font-size="12" fill="black"><tspan x="4" y="14.78895833333333">System</tspan><tspan x="4" y="29.455624999999998">Information</tspan><tspan x="4" y="44.12229166666666">Discovery</tspan></text></g><g class="technique T1497" transform="translate(0, 207.64499999999998)"><rect class="cell" height="51.911249999999995" width="109.03636363636365" fill="rgb(253, 230, 101)" stroke="#6B7279"/><polygon class="sidebar" transform="translate(0, 51.911249999999995)" points="0,0 12,0 12,12" fill="#6B7279" visibility="hidden"/><text font-size="6.659214876033059" fill="black"><tspan x="4" y="20.205624999999998">Virtualization/Sandbox</tspan><tspan x="4" y="34.705625">Evasion</tspan></text></g><g class="technique T1087" transform="translate(0, 259.55625)"><rect class="cell" height="51.911249999999995" width="109.03636363636365" fill="#8ec843" stroke="#6B7279"/><polygon class="sidebar" transform="translate(0, 51.911249999999995)" points="0,0 12,0 12,12" fill="#6B7279" visibility="hidden"/><text font-size="12" fill="black"><tspan x="4" y="22.205624999999998">Account</tspan><tspan x="4" y="36.705625">Discovery</tspan></text></g><g class="technique T1083" transform="translate(0, 311.4675)"><rect class="cell" height="51.911249999999995" width="109.03636363636365" fill="#8ec843" stroke="#6B7279"/><polygon class="sidebar" transform="translate(0, 51.911249999999995)" points="0,0 12,0 12,0" fill="#6B7279" visibility="hidden"/><text font-size="12" fill="black"><tspan x="4" y="14.78895833333333">File and</tspan><tspan x="4" y="29.455624999999998">Directory</tspan><tspan x="4" y="44.12229166666666">Discovery</tspan></text></g><g class="technique T1057" transform="translate(0, 363.37874999999997)"><rect class="cell" height="51.911249999999995" width="109.03636363636365" fill="#8ec843" stroke="#6B7279"/><polygon class="sidebar" transform="translate(0, 51.911249999999995)" points="0,0 12,0 12,0" fill="#6B7279" visibility="hidden"/><text font-size="12" fill="black"><tspan x="4" y="22.205624999999998">Process</tspan><tspan x="4" y="36.705625">Discovery</tspan></text></g><g class="technique T1018" transform="translate(0, 415.28999999999996)"><rect class="cell" height="51.911249999999995" width="109.03636363636365" fill="#8ec843" stroke="#6B7279"/><polygon class="sidebar" transform="translate(0, 51.911249999999995)" points="0,0 12,0 12,0" fill="#6B7279" visibility="hidden"/><text font-size="12" fill="black"><tspan x="4" y="14.78895833333333">Remote</tspan><tspan x="4" y="29.455624999999998">System</tspan><tspan x="4" y="44.12229166666666">Discovery</tspan></text></g><g class="technique T1033" transform="translate(0, 467.20124999999996)"><rect class="cell" height="51.911249999999995" width="109.03636363636365" fill="#8ec843" stroke="#6B7279"/><polygon class="sidebar" transform="translate(0, 51.911249999999995)" points="0,0 12,0 12,0" fill="#6B7279" visibility="hidden"/><text font-size="12" fill="black"><tspan x="4" y="14.78895833333333">System</tspan><tspan x="4" y="29.455624999999998">Owner/User</tspan><tspan x="4" y="44.12229166666666">Discovery</tspan></text></g></g><g class="subtechniques"/><g class="tactic-label"><text font-size="12" fill="black" font-weight="bold"><tspan text-anchor="middle" x="54.51818181818182" y="29.455624999999998">Discovery</tspan></text></g></g><g class="tactic collection" transform="translate(848.0606060606061, 0)"><g class="techniques"><g class="technique T1560" transform="translate(0, 51.911249999999995)"><rect class="cell" height="51.911249999999995" width="109.03636363636365" fill="rgb(253, 230, 101)" stroke="#6B7279"/><polygon class="sidebar" transform="translate(0, 51.911249999999995)" points="0,0 12,0 12,12" fill="#6B7279" visibility="hidden"/><text font-size="12" fill="black"><tspan x="4" y="14.78895833333333">Archive</tspan><tspan x="4" y="29.455624999999998">Collected</tspan><tspan x="4" y="44.12229166666666">Data</tspan></text></g><g class="technique T1056" transform="translate(0, 103.82249999999999)"><rect class="cell" height="51.911249999999995" width="109.03636363636365" fill="rgb(253, 230, 101)" stroke="#6B7279"/><polygon class="sidebar" transform="translate(0, 51.911249999999995)" points="0,0 12,0 12,12" fill="#6B7279" visibility="hidden"/><text font-size="12" fill="black"><tspan x="4" y="22.205624999999998">Input</tspan><tspan x="4" y="36.705625">Capture</tspan></text></g></g><g class="subtechniques"/><g class="tactic-label"><text font-size="12" fill="black" font-weight="bold"><tspan text-anchor="middle" x="54.51818181818182" y="29.455624999999998">Collection</tspan></text></g></g><g class="tactic command-and-control" transform="translate(969.2121212121212, 0)"><g class="techniques"><g class="technique T1090" transform="translate(0, 51.911249999999995)"><rect class="cell" height="51.911249999999995" width="109.03636363636365" fill="#ff6666" stroke="#6B7279"/><polygon class="sidebar" transform="translate(0, 51.911249999999995)" points="0,0 12,0 12,12" fill="#6B7279" visibility="hidden"/><text font-size="12" fill="black"><tspan x="4" y="29.455624999999998">Proxy</tspan></text></g><g class="technique T1573" transform="translate(0, 103.82249999999999)"><rect class="cell" height="51.911249999999995" width="109.03636363636365" fill="rgb(253, 230, 101)" stroke="#6B7279"/><polygon class="sidebar" transform="translate(0, 51.911249999999995)" points="0,0 12,0 12,12" fill="#6B7279" visibility="hidden"/><text font-size="12" fill="black"><tspan x="4" y="22.205624999999998">Encrypted</tspan><tspan x="4" y="36.705625">Channel</tspan></text></g></g><g class="subtechniques"/><g class="tactic-label"><text font-size="12" fill="black" font-weight="bold"><tspan text-anchor="middle" x="54.51818181818182" y="22.205624999999998">Command</tspan><tspan text-anchor="middle" x="54.51818181818182" y="36.705625">and Control</tspan></text></g></g><g class="tactic impact" transform="translate(1090.3636363636365, 0)"><g class="techniques"><g class="technique T1486" transform="translate(0, 51.911249999999995)"><rect class="cell" height="51.911249999999995" width="109.03636363636365" fill="#ff6666" stroke="#6B7279"/><polygon class="sidebar" transform="translate(0, 51.911249999999995)" points="0,0 12,0 12,0" fill="#6B7279" visibility="hidden"/><text font-size="12" fill="black"><tspan x="4" y="14.78895833333333">Data</tspan><tspan x="4" y="29.455624999999998">Encrypted</tspan><tspan x="4" y="44.12229166666666">for Impact</tspan></text></g></g><g class="subtechniques"/><g class="tactic-label"><text font-size="12" fill="black" font-weight="bold"><tspan text-anchor="middle" x="54.51818181818182" y="29.455624999999998">Impact</tspan></text></g></g></g></g></g></svg>