<?xml version="1.0" standalone="no"?>
<svg width="1209.4" height="566.90625" xmlns="http://www.w3.org/2000/svg" id="svgvm5"><g transform="translate(5,5)" style="font-family: sans-serif;"><g><g transform="translate(0, 0)"><g transform="translate(0,5)"><rect class="header-box" width="584.3230769230769" height="27.793750000000003" stroke="black" fill="white" rx="5"/><rect class="label-cover" x="7" y="-10" width="38" height="18" fill="white" rx="5"/><text class="header-box-label" x="10" font-size="12" y="3">about</text><g class="header-box-content" transform="translate(5, 0)"><g transform="translate(0, 1.3235119047619044)"><text font-size="20.117380952380955"><tspan x="4" y="19.073363095238097">RL similarity</tspan></text></g></g></g></g><g transform="translate(615.0769230769231, 0)"><g transform="translate(0,5)"><rect class="header-box" width="584.3230769230769" height="27.793750000000003" stroke="black" fill="white" rx="5"/><rect class="label-cover" x="7" y="-10" width="49" height="18" fill="white" rx="5"/><text class="header-box-label" x="10" font-size="12" y="3">domain</text><g class="header-box-content" transform="translate(5, 0)"><g transform="translate(0, 1.3235119047619044)"><text font-size="20.117380952380955"><tspan x="4" y="19.073363095238097">Enterprise ATT&amp;CK v8</tspan></text></g></g></g></g></g><g transform="translate(0,38.79375)"><g><g class="tactic initial-access" transform="translate(0, 0)"><g class="techniques"><g class="technique T1078" transform="translate(0, 47.19204545454545)"><rect class="cell" height="47.19204545454545" width="109.03636363636365" fill="rgba(150, 230, 115, 0.75)" stroke="#6B7279"/><polygon class="sidebar" transform="translate(0, 47.19204545454545)" points="0,0 12,0 12,12" fill="#6B7279" visibility="hidden"/><text font-size="12" fill="black"><tspan x="4" y="19.846022727272725">Valid</tspan><tspan x="4" y="34.346022727272725">Accounts</tspan></text></g></g><g class="subtechniques"/><g class="tactic-label"><text font-size="12" fill="black" font-weight="bold"><tspan text-anchor="middle" x="54.51818181818182" y="19.846022727272725">Initial</tspan><tspan text-anchor="middle" x="54.51818181818182" y="34.346022727272725">Access</tspan></text></g></g><g class="tactic execution" transform="translate(121.15151515151516, 0)"><g class="techniques"><g class="technique T1106" transform="translate(0, 47.19204545454545)"><rect class="cell" height="47.19204545454545" width="109.03636363636365" fill="rgba(150, 230, 115, 0.75)" stroke="#6B7279"/><polygon class="sidebar" transform="translate(0, 47.19204545454545)" points="0,0 12,0 12,0" fill="#6B7279" visibility="hidden"/><text font-size="12" fill="black"><tspan x="4" y="27.096022727272725">Native API</tspan></text></g></g><g class="subtechniques"/><g class="tactic-label"><text font-size="12" fill="black" font-weight="bold"><tspan text-anchor="middle" x="54.51818181818182" y="27.096022727272725">Execution</tspan></text></g></g><g class="tactic persistence" transform="translate(242.3030303030303, 0)"><g class="techniques"><g class="technique T1542" transform="translate(0, 47.19204545454545)"><rect class="cell" height="47.19204545454545" width="109.03636363636365" fill="rgba(150, 230, 115, 0.75)" stroke="#6B7279"/><polygon class="sidebar" transform="translate(0, 47.19204545454545)" points="0,0 12,0 12,12" fill="#6B7279" visibility="hidden"/><text font-size="12" fill="black"><tspan x="4" y="27.096022727272725">Pre-OS Boot</tspan></text></g><g class="technique T1078" transform="translate(0, 94.3840909090909)"><rect class="cell" height="47.19204545454545" width="109.03636363636365" fill="rgba(150, 230, 115, 0.75)" stroke="#6B7279"/><polygon class="sidebar" transform="translate(0, 47.19204545454545)" points="0,0 12,0 12,12" fill="#6B7279" visibility="hidden"/><text font-size="12" fill="black"><tspan x="4" y="19.846022727272725">Valid</tspan><tspan x="4" y="34.346022727272725">Accounts</tspan></text></g><g class="technique T1037" transform="translate(0, 141.57613636363635)"><rect class="cell" height="47.19204545454545" width="109.03636363636365" fill="rgba(102, 177, 255, 0.61)" stroke="#6B7279"/><polygon class="sidebar" transform="translate(0, 47.19204545454545)" points="0,0 12,0 12,12" fill="#6B7279" visibility="hidden"/><text font-size="10.46448051948052" fill="black"><tspan x="4" y="12.429356060606057">Boot or Logon</tspan><tspan x="4" y="27.096022727272725">Initialization</tspan><tspan x="4" y="41.76268939393939">Scripts</tspan></text></g><g class="technique T1574" transform="translate(0, 188.7681818181818)"><rect class="cell" height="47.19204545454545" width="109.03636363636365" fill="rgba(102, 177, 255, 0.61)" stroke="#6B7279"/><polygon class="sidebar" transform="translate(0, 47.19204545454545)" points="0,0 12,0 12,12" fill="#6B7279" visibility="hidden"/><text font-size="12" fill="black"><tspan x="4" y="12.429356060606057">Hijack</tspan><tspan x="4" y="27.096022727272725">Execution</tspan><tspan x="4" y="41.76268939393939">Flow</tspan></text></g></g><g class="subtechniques"/><g class="tactic-label"><text font-size="12" fill="black" font-weight="bold"><tspan text-anchor="middle" x="54.51818181818182" y="27.096022727272725">Persistence</tspan></text></g></g><g class="tactic privilege-escalation" transform="translate(363.4545454545455, 0)"><g class="techniques"><g class="technique T1134" transform="translate(0, 47.19204545454545)"><rect class="cell" height="47.19204545454545" width="109.03636363636365" fill="rgba(150, 230, 115, 0.75)" stroke="#6B7279"/><polygon class="sidebar" transform="translate(0, 47.19204545454545)" points="0,0 12,0 12,12" fill="#6B7279" visibility="hidden"/><text font-size="12" fill="black"><tspan x="4" y="19.846022727272725">Access Token</tspan><tspan x="4" y="34.346022727272725">Manipulation</tspan></text></g><g class="technique T1055" transform="translate(0, 94.3840909090909)"><rect class="cell" height="47.19204545454545" width="109.03636363636365" fill="rgba(150, 230, 115, 0.75)" stroke="#6B7279"/><polygon class="sidebar" transform="translate(0, 47.19204545454545)" points="0,0 12,0 12,12" fill="#6B7279" visibility="hidden"/><text font-size="12" fill="black"><tspan x="4" y="19.846022727272725">Process</tspan><tspan x="4" y="34.346022727272725">Injection</tspan></text></g><g class="technique T1078" transform="translate(0, 141.57613636363635)"><rect class="cell" height="47.19204545454545" width="109.03636363636365" fill="rgba(150, 230, 115, 0.75)" stroke="#6B7279"/><polygon class="sidebar" transform="translate(0, 47.19204545454545)" points="0,0 12,0 12,12" fill="#6B7279" visibility="hidden"/><text font-size="12" fill="black"><tspan x="4" y="19.846022727272725">Valid</tspan><tspan x="4" y="34.346022727272725">Accounts</tspan></text></g><g class="technique T1037" transform="translate(0, 188.7681818181818)"><rect class="cell" height="47.19204545454545" width="109.03636363636365" fill="rgba(102, 177, 255, 0.61)" stroke="#6B7279"/><polygon class="sidebar" transform="translate(0, 47.19204545454545)" points="0,0 12,0 12,12" fill="#6B7279" visibility="hidden"/><text font-size="10.46448051948052" fill="black"><tspan x="4" y="12.429356060606057">Boot or Logon</tspan><tspan x="4" y="27.096022727272725">Initialization</tspan><tspan x="4" y="41.76268939393939">Scripts</tspan></text></g><g class="technique T1574" transform="translate(0, 235.96022727272725)"><rect class="cell" height="47.19204545454545" width="109.03636363636365" fill="rgba(102, 177, 255, 0.61)" stroke="#6B7279"/><polygon class="sidebar" transform="translate(0, 47.19204545454545)" points="0,0 12,0 12,12" fill="#6B7279" visibility="hidden"/><text font-size="12" fill="black"><tspan x="4" y="12.429356060606057">Hijack</tspan><tspan x="4" y="27.096022727272725">Execution</tspan><tspan x="4" y="41.76268939393939">Flow</tspan></text></g></g><g class="subtechniques"/><g class="tactic-label"><text font-size="12" fill="black" font-weight="bold"><tspan text-anchor="middle" x="54.51818181818182" y="19.846022727272725">Privilege</tspan><tspan text-anchor="middle" x="54.51818181818182" y="34.346022727272725">Escalation</tspan></text></g></g><g class="tactic defense-evasion" transform="translate(484.6060606060606, 0)"><g class="techniques"><g class="technique T1134" transform="translate(0, 47.19204545454545)"><rect class="cell" height="47.19204545454545" width="109.03636363636365" fill="rgba(150, 230, 115, 0.75)" stroke="#6B7279"/><polygon class="sidebar" transform="translate(0, 47.19204545454545)" points="0,0 12,0 12,12" fill="#6B7279" visibility="hidden"/><text font-size="12" fill="black"><tspan x="4" y="19.846022727272725">Access Token</tspan><tspan x="4" y="34.346022727272725">Manipulation</tspan></text></g><g class="technique T1542" transform="translate(0, 94.3840909090909)"><rect class="cell" height="47.19204545454545" width="109.03636363636365" fill="rgba(150, 230, 115, 0.75)" stroke="#6B7279"/><polygon class="sidebar" transform="translate(0, 47.19204545454545)" points="0,0 12,0 12,12" fill="#6B7279" visibility="hidden"/><text font-size="12" fill="black"><tspan x="4" y="27.096022727272725">Pre-OS Boot</tspan></text></g><g class="technique T1055" transform="translate(0, 141.57613636363635)"><rect class="cell" height="47.19204545454545" width="109.03636363636365" fill="rgba(150, 230, 115, 0.75)" stroke="#6B7279"/><polygon class="sidebar" transform="translate(0, 47.19204545454545)" points="0,0 12,0 12,12" fill="#6B7279" visibility="hidden"/><text font-size="12" fill="black"><tspan x="4" y="19.846022727272725">Process</tspan><tspan x="4" y="34.346022727272725">Injection</tspan></text></g><g class="technique T1078" transform="translate(0, 188.7681818181818)"><rect class="cell" height="47.19204545454545" width="109.03636363636365" fill="rgba(150, 230, 115, 0.75)" stroke="#6B7279"/><polygon class="sidebar" transform="translate(0, 47.19204545454545)" points="0,0 12,0 12,12" fill="#6B7279" visibility="hidden"/><text font-size="12" fill="black"><tspan x="4" y="19.846022727272725">Valid</tspan><tspan x="4" y="34.346022727272725">Accounts</tspan></text></g><g class="technique T1497" transform="translate(0, 235.96022727272725)"><rect class="cell" height="47.19204545454545" width="109.03636363636365" fill="rgba(150, 230, 115, 0.75)" stroke="#6B7279"/><polygon class="sidebar" transform="translate(0, 47.19204545454545)" points="0,0 12,0 12,12" fill="#6B7279" visibility="hidden"/><text font-size="6.659214876033059" fill="black"><tspan x="4" y="17.846022727272725">Virtualization/Sandbox</tspan><tspan x="4" y="32.346022727272725">Evasion</tspan></text></g><g class="technique T1574" transform="translate(0, 283.1522727272727)"><rect class="cell" height="47.19204545454545" width="109.03636363636365" fill="rgba(102, 177, 255, 0.61)" stroke="#6B7279"/><polygon class="sidebar" transform="translate(0, 47.19204545454545)" points="0,0 12,0 12,12" fill="#6B7279" visibility="hidden"/><text font-size="12" fill="black"><tspan x="4" y="12.429356060606057">Hijack</tspan><tspan x="4" y="27.096022727272725">Execution</tspan><tspan x="4" y="41.76268939393939">Flow</tspan></text></g><g class="technique T1070" transform="translate(0, 330.34431818181815)"><rect class="cell" height="47.19204545454545" width="109.03636363636365" fill="rgba(102, 177, 255, 0.61)" stroke="#6B7279"/><polygon class="sidebar" transform="translate(0, 47.19204545454545)" points="0,0 12,0 12,12" fill="#6B7279" visibility="hidden"/><text font-size="12" fill="black"><tspan x="4" y="12.429356060606057">Indicator</tspan><tspan x="4" y="27.096022727272725">Removal</tspan><tspan x="4" y="41.76268939393939">on Host</tspan></text></g><g class="technique T1036" transform="translate(0, 377.5363636363636)"><rect class="cell" height="47.19204545454545" width="109.03636363636365" fill="rgba(102, 177, 255, 0.61)" stroke="#6B7279"/><polygon class="sidebar" transform="translate(0, 47.19204545454545)" points="0,0 12,0 12,12" fill="#6B7279" visibility="hidden"/><text font-size="12" fill="black"><tspan x="4" y="27.096022727272725">Masquerading</tspan></text></g><g class="technique T1112" transform="translate(0, 424.72840909090905)"><rect class="cell" height="47.19204545454545" width="109.03636363636365" fill="rgba(102, 177, 255, 0.61)" stroke="#6B7279"/><polygon class="sidebar" transform="translate(0, 47.19204545454545)" points="0,0 12,0 12,0" fill="#6B7279" visibility="hidden"/><text font-size="12" fill="black"><tspan x="4" y="19.846022727272725">Modify</tspan><tspan x="4" y="34.346022727272725">Registry</tspan></text></g></g><g class="subtechniques"/><g class="tactic-label"><text font-size="12" fill="black" font-weight="bold"><tspan text-anchor="middle" x="54.51818181818182" y="19.846022727272725">Defense</tspan><tspan text-anchor="middle" x="54.51818181818182" y="34.346022727272725">Evasion</tspan></text></g></g><g class="tactic credential-access" transform="translate(605.7575757575758, 0)"><g class="techniques"><g class="technique T1056" transform="translate(0, 47.19204545454545)"><rect class="cell" height="47.19204545454545" width="109.03636363636365" fill="rgba(102, 177, 255, 0.61)" stroke="#6B7279"/><polygon class="sidebar" transform="translate(0, 47.19204545454545)" points="0,0 12,0 12,12" fill="#6B7279" visibility="hidden"/><text font-size="12" fill="black"><tspan x="4" y="19.846022727272725">Input</tspan><tspan x="4" y="34.346022727272725">Capture</tspan></text></g></g><g class="subtechniques"/><g class="tactic-label"><text font-size="12" fill="black" font-weight="bold"><tspan text-anchor="middle" x="54.51818181818182" y="19.846022727272725">Credential</tspan><tspan text-anchor="middle" x="54.51818181818182" y="34.346022727272725">Access</tspan></text></g></g><g class="tactic discovery" transform="translate(726.909090909091, 0)"><g class="techniques"><g class="technique T1087" transform="translate(0, 47.19204545454545)"><rect class="cell" height="47.19204545454545" width="109.03636363636365" fill="rgba(150, 230, 115, 0.75)" stroke="#6B7279"/><polygon class="sidebar" transform="translate(0, 47.19204545454545)" points="0,0 12,0 12,12" fill="#6B7279" visibility="hidden"/><text font-size="12" fill="black"><tspan x="4" y="19.846022727272725">Account</tspan><tspan x="4" y="34.346022727272725">Discovery</tspan></text></g><g class="technique T1083" transform="translate(0, 94.3840909090909)"><rect class="cell" height="47.19204545454545" width="109.03636363636365" fill="rgba(150, 230, 115, 0.75)" stroke="#6B7279"/><polygon class="sidebar" transform="translate(0, 47.19204545454545)" points="0,0 12,0 12,0" fill="#6B7279" visibility="hidden"/><text font-size="12" fill="black"><tspan x="4" y="12.429356060606057">File and</tspan><tspan x="4" y="27.096022727272725">Directory</tspan><tspan x="4" y="41.76268939393939">Discovery</tspan></text></g><g class="technique T1057" transform="translate(0, 141.57613636363635)"><rect class="cell" height="47.19204545454545" width="109.03636363636365" fill="rgba(150, 230, 115, 0.75)" stroke="#6B7279"/><polygon class="sidebar" transform="translate(0, 47.19204545454545)" points="0,0 12,0 12,0" fill="#6B7279" visibility="hidden"/><text font-size="12" fill="black"><tspan x="4" y="19.846022727272725">Process</tspan><tspan x="4" y="34.346022727272725">Discovery</tspan></text></g><g class="technique T1518" transform="translate(0, 188.7681818181818)"><rect class="cell" height="47.19204545454545" width="109.03636363636365" fill="rgba(150, 230, 115, 0.75)" stroke="#6B7279"/><polygon class="sidebar" transform="translate(0, 47.19204545454545)" points="0,0 12,0 12,12" fill="#6B7279" visibility="hidden"/><text font-size="12" fill="black"><tspan x="4" y="19.846022727272725">Software</tspan><tspan x="4" y="34.346022727272725">Discovery</tspan></text></g><g class="technique T1082" transform="translate(0, 235.96022727272725)"><rect class="cell" height="47.19204545454545" width="109.03636363636365" fill="rgba(150, 230, 115, 0.75)" stroke="#6B7279"/><polygon class="sidebar" transform="translate(0, 47.19204545454545)" points="0,0 12,0 12,0" fill="#6B7279" visibility="hidden"/><text font-size="12" fill="black"><tspan x="4" y="12.429356060606057">System</tspan><tspan x="4" y="27.096022727272725">Information</tspan><tspan x="4" y="41.76268939393939">Discovery</tspan></text></g><g class="technique T1033" transform="translate(0, 283.1522727272727)"><rect class="cell" height="47.19204545454545" width="109.03636363636365" fill="rgba(150, 230, 115, 0.75)" stroke="#6B7279"/><polygon class="sidebar" transform="translate(0, 47.19204545454545)" points="0,0 12,0 12,0" fill="#6B7279" visibility="hidden"/><text font-size="12" fill="black"><tspan x="4" y="12.429356060606057">System</tspan><tspan x="4" y="27.096022727272725">Owner/User</tspan><tspan x="4" y="41.76268939393939">Discovery</tspan></text></g><g class="technique T1497" transform="translate(0, 330.34431818181815)"><rect class="cell" height="47.19204545454545" width="109.03636363636365" fill="rgba(150, 230, 115, 0.75)" stroke="#6B7279"/><polygon class="sidebar" transform="translate(0, 47.19204545454545)" points="0,0 12,0 12,12" fill="#6B7279" visibility="hidden"/><text font-size="6.659214876033059" fill="black"><tspan x="4" y="17.846022727272725">Virtualization/Sandbox</tspan><tspan x="4" y="32.346022727272725">Evasion</tspan></text></g><g class="technique T1012" transform="translate(0, 377.5363636363636)"><rect class="cell" height="47.19204545454545" width="109.03636363636365" fill="rgba(102, 177, 255, 0.61)" stroke="#6B7279"/><polygon class="sidebar" transform="translate(0, 47.19204545454545)" points="0,0 12,0 12,0" fill="#6B7279" visibility="hidden"/><text font-size="12" fill="black"><tspan x="4" y="19.846022727272725">Query</tspan><tspan x="4" y="34.346022727272725">Registry</tspan></text></g><g class="technique T1018" transform="translate(0, 424.72840909090905)"><rect class="cell" height="47.19204545454545" width="109.03636363636365" fill="rgba(102, 177, 255, 0.61)" stroke="#6B7279"/><polygon class="sidebar" transform="translate(0, 47.19204545454545)" points="0,0 12,0 12,0" fill="#6B7279" visibility="hidden"/><text font-size="12" fill="black"><tspan x="4" y="12.429356060606057">Remote</tspan><tspan x="4" y="27.096022727272725">System</tspan><tspan x="4" y="41.76268939393939">Discovery</tspan></text></g><g class="technique T1007" transform="translate(0, 471.9204545454545)"><rect class="cell" height="47.19204545454545" width="109.03636363636365" fill="rgba(102, 177, 255, 0.61)" stroke="#6B7279"/><polygon class="sidebar" transform="translate(0, 47.19204545454545)" points="0,0 12,0 12,0" fill="#6B7279" visibility="hidden"/><text font-size="12" fill="black"><tspan x="4" y="12.429356060606057">System</tspan><tspan x="4" y="27.096022727272725">Service</tspan><tspan x="4" y="41.76268939393939">Discovery</tspan></text></g></g><g class="subtechniques"/><g class="tactic-label"><text font-size="12" fill="black" font-weight="bold"><tspan text-anchor="middle" x="54.51818181818182" y="27.096022727272725">Discovery</tspan></text></g></g><g class="tactic collection" transform="translate(848.0606060606061, 0)"><g class="techniques"><g class="technique T1560" transform="translate(0, 47.19204545454545)"><rect class="cell" height="47.19204545454545" width="109.03636363636365" fill="rgba(150, 230, 115, 0.75)" stroke="#6B7279"/><polygon class="sidebar" transform="translate(0, 47.19204545454545)" points="0,0 12,0 12,12" fill="#6B7279" visibility="hidden"/><text font-size="12" fill="black"><tspan x="4" y="12.429356060606057">Archive</tspan><tspan x="4" y="27.096022727272725">Collected</tspan><tspan x="4" y="41.76268939393939">Data</tspan></text></g><g class="technique T1119" transform="translate(0, 94.3840909090909)"><rect class="cell" height="47.19204545454545" width="109.03636363636365" fill="rgba(102, 177, 255, 0.61)" stroke="#6B7279"/><polygon class="sidebar" transform="translate(0, 47.19204545454545)" points="0,0 12,0 12,0" fill="#6B7279" visibility="hidden"/><text font-size="12" fill="black"><tspan x="4" y="19.846022727272725">Automated</tspan><tspan x="4" y="34.346022727272725">Collection</tspan></text></g><g class="technique T1005" transform="translate(0, 141.57613636363635)"><rect class="cell" height="47.19204545454545" width="109.03636363636365" fill="rgba(102, 177, 255, 0.61)" stroke="#6B7279"/><polygon class="sidebar" transform="translate(0, 47.19204545454545)" points="0,0 12,0 12,0" fill="#6B7279" visibility="hidden"/><text font-size="12" fill="black"><tspan x="4" y="19.846022727272725">Data from</tspan><tspan x="4" y="34.346022727272725">Local System</tspan></text></g><g class="technique T1056" transform="translate(0, 188.7681818181818)"><rect class="cell" height="47.19204545454545" width="109.03636363636365" fill="rgba(102, 177, 255, 0.61)" stroke="#6B7279"/><polygon class="sidebar" transform="translate(0, 47.19204545454545)" points="0,0 12,0 12,12" fill="#6B7279" visibility="hidden"/><text font-size="12" fill="black"><tspan x="4" y="19.846022727272725">Input</tspan><tspan x="4" y="34.346022727272725">Capture</tspan></text></g></g><g class="subtechniques"/><g class="tactic-label"><text font-size="12" fill="black" font-weight="bold"><tspan text-anchor="middle" x="54.51818181818182" y="27.096022727272725">Collection</tspan></text></g></g><g class="tactic command-and-control" transform="translate(969.2121212121212, 0)"><g class="techniques"><g class="technique T1573" transform="translate(0, 47.19204545454545)"><rect class="cell" height="47.19204545454545" width="109.03636363636365" fill="rgba(150, 230, 115, 0.75)" stroke="#6B7279"/><polygon class="sidebar" transform="translate(0, 47.19204545454545)" points="0,0 12,0 12,12" fill="#6B7279" visibility="hidden"/><text font-size="12" fill="black"><tspan x="4" y="19.846022727272725">Encrypted</tspan><tspan x="4" y="34.346022727272725">Channel</tspan></text></g><g class="technique T1090" transform="translate(0, 94.3840909090909)"><rect class="cell" height="47.19204545454545" width="109.03636363636365" fill="rgba(102, 177, 255, 0.61)" stroke="#6B7279"/><polygon class="sidebar" transform="translate(0, 47.19204545454545)" points="0,0 12,0 12,12" fill="#6B7279" visibility="hidden"/><text font-size="12" fill="black"><tspan x="4" y="27.096022727272725">Proxy</tspan></text></g></g><g class="subtechniques"/><g class="tactic-label"><text font-size="12" fill="black" font-weight="bold"><tspan text-anchor="middle" x="54.51818181818182" y="19.846022727272725">Command</tspan><tspan text-anchor="middle" x="54.51818181818182" y="34.346022727272725">and Control</tspan></text></g></g><g class="tactic impact" transform="translate(1090.3636363636365, 0)"><g class="techniques"><g class="technique T1486" transform="translate(0, 47.19204545454545)"><rect class="cell" height="47.19204545454545" width="109.03636363636365" fill="rgba(150, 230, 115, 0.75)" stroke="#6B7279"/><polygon class="sidebar" transform="translate(0, 47.19204545454545)" points="0,0 12,0 12,0" fill="#6B7279" visibility="hidden"/><text font-size="12" fill="black"><tspan x="4" y="12.429356060606057">Data</tspan><tspan x="4" y="27.096022727272725">Encrypted</tspan><tspan x="4" y="41.76268939393939">for Impact</tspan></text></g></g><g class="subtechniques"/><g class="tactic-label"><text font-size="12" fill="black" font-weight="bold"><tspan text-anchor="middle" x="54.51818181818182" y="27.096022727272725">Impact</tspan></text></g></g></g></g></g></svg>